<?xml version="1.0" standalone="no"?>
<!DOCTYPE svg PUBLIC "-//W3C//DTD SVG 20010904//EN"
 "http://www.w3.org/TR/2001/REC-SVG-20010904/DTD/svg10.dtd">
<svg version="1.0" xmlns="http://www.w3.org/2000/svg"
 width="500.000000pt" height="500.000000pt" viewBox="0 0 500.000000 500.000000"
 preserveAspectRatio="xMidYMid meet">
<metadata>
Created by potrace 1.14, written by Peter Selinger 2001-2017
</metadata>
<g transform="translate(0.000000,500.000000) scale(0.100000,-0.100000)"
fill="#000000" stroke="none">
<path d="M0 2500 l0 -2500 2500 0 2500 0 0 2500 0 2500 -2500 0 -2500 0 0
-2500z m1847 1999 c1 -8 -84 -86 -190 -174 l-192 -161 -3 -759 -2 -760 -176
-96 c-97 -53 -176 -100 -176 -104 0 -5 78 -52 174 -104 l173 -96 5 -707 5
-707 193 -161 c105 -89 192 -165 192 -170 0 -5 -5 -12 -10 -15 -8 -5 -403 153
-547 218 l-23 10 0 722 0 722 -140 136 c-77 75 -140 142 -140 150 0 8 63 76
140 151 l140 136 0 778 0 777 278 117 c152 65 282 116 287 114 6 -1 11 -9 12
-17z m1574 -85 c123 -53 243 -102 267 -111 l42 -15 0 -779 0 -779 140 -136
c77 -75 140 -143 140 -150 0 -8 -8 -22 -19 -31 -10 -10 -73 -72 -140 -137
l-121 -119 0 -723 0 -722 -72 -30 c-441 -183 -492 -202 -501 -193 -14 14 -10
19 198 192 l185 154 0 705 0 705 167 90 c91 50 173 95 181 101 12 9 -21 30
-167 110 l-181 98 0 758 0 757 -182 154 c-199 168 -213 181 -203 197 9 14 4
16 266 -96z m-1191 -531 c140 -232 260 -427 266 -433 8 -8 77 100 251 392 132
222 248 418 259 436 l18 32 133 0 133 0 0 -607 c0 -335 3 -652 7 -705 l6 -98
-156 0 -157 0 0 410 c0 226 -4 410 -8 410 -5 0 -98 -151 -208 -335 l-199 -335
-77 0 -76 0 -192 314 c-105 172 -197 322 -205 332 -12 17 -14 -35 -15 -388 l0
-408 -155 0 -155 0 0 698 c0 384 3 702 7 706 4 3 66 5 137 4 l131 -3 255 -422z
m-142 -1916 c1 -208 6 -377 10 -375 8 3 326 335 596 621 l129 137 209 0 c114
0 208 -3 208 -6 0 -8 -67 -81 -423 -463 l-256 -274 45 -56 c24 -31 134 -168
243 -306 109 -137 253 -319 320 -403 l122 -152 -228 2 -227 3 -257 315 c-142
173 -263 315 -269 315 -6 0 -58 -47 -116 -105 l-104 -105 0 -212 0 -213 -195
0 -195 0 0 823 c0 453 3 827 7 831 4 3 90 5 192 4 l186 -3 3 -378z"/>
</g>
</svg>
